<svg xmlns="http://www.w3.org/2000/svg" width="400" height="400" viewBox="0 0 400 400">
  <!-- Background circle clip -->
  <defs>
    <clipPath id="circle">
      <circle cx="200" cy="200" r="200"/>
    </clipPath>
  </defs>

  <!-- Background -->
  <rect width="400" height="400" fill="#0d1117" clip-path="url(#circle)"/>

  <!-- Subtle dot grid -->
  <g fill="#8b949e" opacity="0.07" clip-path="url(#circle)">
    <circle cx="30" cy="30" r="1.5"/><circle cx="56" cy="30" r="1.5"/><circle cx="82" cy="30" r="1.5"/><circle cx="108" cy="30" r="1.5"/><circle cx="134" cy="30" r="1.5"/><circle cx="160" cy="30" r="1.5"/><circle cx="186" cy="30" r="1.5"/><circle cx="212" cy="30" r="1.5"/><circle cx="238" cy="30" r="1.5"/><circle cx="264" cy="30" r="1.5"/><circle cx="290" cy="30" r="1.5"/><circle cx="316" cy="30" r="1.5"/><circle cx="342" cy="30" r="1.5"/><circle cx="368" cy="30" r="1.5"/><circle cx="30" cy="56" r="1.5"/><circle cx="56" cy="56" r="1.5"/><circle cx="82" cy="56" r="1.5"/><circle cx="108" cy="56" r="1.5"/><circle cx="134" cy="56" r="1.5"/><circle cx="160" cy="56" r="1.5"/><circle cx="186" cy="56" r="1.5"/><circle cx="212" cy="56" r="1.5"/><circle cx="238" cy="56" r="1.5"/><circle cx="264" cy="56" r="1.5"/><circle cx="290" cy="56" r="1.5"/><circle cx="316" cy="56" r="1.5"/><circle cx="342" cy="56" r="1.5"/><circle cx="368" cy="56" r="1.5"/><circle cx="30" cy="82" r="1.5"/><circle cx="56" cy="82" r="1.5"/><circle cx="82" cy="82" r="1.5"/><circle cx="108" cy="82" r="1.5"/><circle cx="134" cy="82" r="1.5"/><circle cx="160" cy="82" r="1.5"/><circle cx="186" cy="82" r="1.5"/><circle cx="212" cy="82" r="1.5"/><circle cx="238" cy="82" r="1.5"/><circle cx="264" cy="82" r="1.5"/><circle cx="290" cy="82" r="1.5"/><circle cx="316" cy="82" r="1.5"/><circle cx="342" cy="82" r="1.5"/><circle cx="368" cy="82" r="1.5"/><circle cx="30" cy="108" r="1.5"/><circle cx="56" cy="108" r="1.5"/><circle cx="82" cy="108" r="1.5"/><circle cx="108" cy="108" r="1.5"/><circle cx="134" cy="108" r="1.5"/><circle cx="160" cy="108" r="1.5"/><circle cx="186" cy="108" r="1.5"/><circle cx="212" cy="108" r="1.5"/><circle cx="238" cy="108" r="1.5"/><circle cx="264" cy="108" r="1.5"/><circle cx="290" cy="108" r="1.5"/><circle cx="316" cy="108" r="1.5"/><circle cx="342" cy="108" r="1.5"/><circle cx="368" cy="108" r="1.5"/><circle cx="30" cy="134" r="1.5"/><circle cx="56" cy="134" r="1.5"/><circle cx="82" cy="134" r="1.5"/><circle cx="108" cy="134" r="1.5"/><circle cx="134" cy="134" r="1.5"/><circle cx="160" cy="134" r="1.5"/><circle cx="186" cy="134" r="1.5"/><circle cx="212" cy="134" r="1.5"/><circle cx="238" cy="134" r="1.5"/><circle cx="264" cy="134" r="1.5"/><circle cx="290" cy="134" r="1.5"/><circle cx="316" cy="134" r="1.5"/><circle cx="342" cy="134" r="1.5"/><circle cx="368" cy="134" r="1.5"/><circle cx="30" cy="160" r="1.5"/><circle cx="56" cy="160" r="1.5"/><circle cx="82" cy="160" r="1.5"/><circle cx="108" cy="160" r="1.5"/><circle cx="134" cy="160" r="1.5"/><circle cx="160" cy="160" r="1.5"/><circle cx="186" cy="160" r="1.5"/><circle cx="212" cy="160" r="1.5"/><circle cx="238" cy="160" r="1.5"/><circle cx="264" cy="160" r="1.5"/><circle cx="290" cy="160" r="1.5"/><circle cx="316" cy="160" r="1.5"/><circle cx="342" cy="160" r="1.5"/><circle cx="368" cy="160" r="1.5"/><circle cx="30" cy="186" r="1.5"/><circle cx="56" cy="186" r="1.5"/><circle cx="82" cy="186" r="1.5"/><circle cx="108" cy="186" r="1.5"/><circle cx="134" cy="186" r="1.5"/><circle cx="160" cy="186" r="1.5"/><circle cx="186" cy="186" r="1.5"/><circle cx="212" cy="186" r="1.5"/><circle cx="238" cy="186" r="1.5"/><circle cx="264" cy="186" r="1.5"/><circle cx="290" cy="186" r="1.5"/><circle cx="316" cy="186" r="1.5"/><circle cx="342" cy="186" r="1.5"/><circle cx="368" cy="186" r="1.5"/><circle cx="30" cy="212" r="1.5"/><circle cx="56" cy="212" r="1.5"/><circle cx="82" cy="212" r="1.5"/><circle cx="108" cy="212" r="1.5"/><circle cx="134" cy="212" r="1.5"/><circle cx="160" cy="212" r="1.5"/><circle cx="186" cy="212" r="1.5"/><circle cx="212" cy="212" r="1.5"/><circle cx="238" cy="212" r="1.5"/><circle cx="264" cy="212" r="1.5"/><circle cx="290" cy="212" r="1.5"/><circle cx="316" cy="212" r="1.5"/><circle cx="342" cy="212" r="1.5"/><circle cx="368" cy="212" r="1.5"/><circle cx="30" cy="238" r="1.5"/><circle cx="56" cy="238" r="1.5"/><circle cx="82" cy="238" r="1.5"/><circle cx="108" cy="238" r="1.5"/><circle cx="134" cy="238" r="1.5"/><circle cx="160" cy="238" r="1.5"/><circle cx="186" cy="238" r="1.5"/><circle cx="212" cy="238" r="1.5"/><circle cx="238" cy="238" r="1.5"/><circle cx="264" cy="238" r="1.5"/><circle cx="290" cy="238" r="1.5"/><circle cx="316" cy="238" r="1.5"/><circle cx="342" cy="238" r="1.5"/><circle cx="368" cy="238" r="1.5"/><circle cx="30" cy="264" r="1.5"/><circle cx="56" cy="264" r="1.5"/><circle cx="82" cy="264" r="1.5"/><circle cx="108" cy="264" r="1.5"/><circle cx="134" cy="264" r="1.5"/><circle cx="160" cy="264" r="1.5"/><circle cx="186" cy="264" r="1.5"/><circle cx="212" cy="264" r="1.5"/><circle cx="238" cy="264" r="1.5"/><circle cx="264" cy="264" r="1.5"/><circle cx="290" cy="264" r="1.5"/><circle cx="316" cy="264" r="1.5"/><circle cx="342" cy="264" r="1.5"/><circle cx="368" cy="264" r="1.5"/><circle cx="30" cy="290" r="1.5"/><circle cx="56" cy="290" r="1.5"/><circle cx="82" cy="290" r="1.5"/><circle cx="108" cy="290" r="1.5"/><circle cx="134" cy="290" r="1.5"/><circle cx="160" cy="290" r="1.5"/><circle cx="186" cy="290" r="1.5"/><circle cx="212" cy="290" r="1.5"/><circle cx="238" cy="290" r="1.5"/><circle cx="264" cy="290" r="1.5"/><circle cx="290" cy="290" r="1.5"/><circle cx="316" cy="290" r="1.5"/><circle cx="342" cy="290" r="1.5"/><circle cx="368" cy="290" r="1.5"/><circle cx="30" cy="316" r="1.5"/><circle cx="56" cy="316" r="1.5"/><circle cx="82" cy="316" r="1.5"/><circle cx="108" cy="316" r="1.5"/><circle cx="134" cy="316" r="1.5"/><circle cx="160" cy="316" r="1.5"/><circle cx="186" cy="316" r="1.5"/><circle cx="212" cy="316" r="1.5"/><circle cx="238" cy="316" r="1.5"/><circle cx="264" cy="316" r="1.5"/><circle cx="290" cy="316" r="1.5"/><circle cx="316" cy="316" r="1.5"/><circle cx="342" cy="316" r="1.5"/><circle cx="368" cy="316" r="1.5"/><circle cx="30" cy="342" r="1.5"/><circle cx="56" cy="342" r="1.5"/><circle cx="82" cy="342" r="1.5"/><circle cx="108" cy="342" r="1.5"/><circle cx="134" cy="342" r="1.5"/><circle cx="160" cy="342" r="1.5"/><circle cx="186" cy="342" r="1.5"/><circle cx="212" cy="342" r="1.5"/><circle cx="238" cy="342" r="1.5"/><circle cx="264" cy="342" r="1.5"/><circle cx="290" cy="342" r="1.5"/><circle cx="316" cy="342" r="1.5"/><circle cx="342" cy="342" r="1.5"/><circle cx="368" cy="342" r="1.5"/><circle cx="30" cy="368" r="1.5"/><circle cx="56" cy="368" r="1.5"/><circle cx="82" cy="368" r="1.5"/><circle cx="108" cy="368" r="1.5"/><circle cx="134" cy="368" r="1.5"/><circle cx="160" cy="368" r="1.5"/><circle cx="186" cy="368" r="1.5"/><circle cx="212" cy="368" r="1.5"/><circle cx="238" cy="368" r="1.5"/><circle cx="264" cy="368" r="1.5"/><circle cx="290" cy="368" r="1.5"/><circle cx="316" cy="368" r="1.5"/><circle cx="342" cy="368" r="1.5"/><circle cx="368" cy="368" r="1.5"/>
  </g>

  <!-- Left accent line -->
  <rect x="60" y="100" width="3" height="200" fill="#57c754" opacity="0.85" clip-path="url(#circle)"/>

  <!-- Terminal prompt line -->
  <text x="82" y="152" font-family="Courier New, Courier, monospace" font-size="18" fill="#57c754" opacity="0.75">~/jczhu.com $</text>

  <!-- Cursor block -->
  <rect x="82" y="172" width="44" height="52" fill="#57c754" opacity="0.15" clip-path="url(#circle)"/>
  <rect x="82" y="172" width="44" height="52" fill="none" stroke="#57c754" stroke-width="1.5" opacity="0.4" clip-path="url(#circle)"/>

  <!-- Initials -->
  <text x="104" y="214" font-family="Courier New, Courier, monospace" font-size="36" fill="#e6edf3" font-weight="700" text-anchor="middle">JZ</text>

  <!-- Divider -->
  <rect x="82" y="244" width="160" height="1" fill="#30363d" clip-path="url(#circle)"/>

  <!-- Tagline -->
  <text x="82" y="272" font-family="Courier New, Courier, monospace" font-size="15" fill="#8b949e">Software Engineer</text>
  <text x="82" y="294" font-family="Courier New, Courier, monospace" font-size="13" fill="#57c754" opacity="0.65">Backend · Systems · AI</text>
</svg>