<svg xmlns="http://www.w3.org/2000/svg" width="1200" height="630" viewBox="0 0 1200 630">
  <!-- Background -->
  <rect width="1200" height="630" fill="#0d1117"/>

  <!-- Left accent line -->
  <rect x="72" y="80" width="3" height="470" fill="#57c754" opacity="0.8"/>

  <!-- Terminal prompt -->
  <text x="96" y="148" font-family="Courier New, Courier, monospace" font-size="22" fill="#57c754" font-weight="400">~/jczhu.com $</text>

  <!-- Cursor blink block -->
  <rect x="244" y="128" width="13" height="22" fill="#57c754" opacity="0.9"/>

  <!-- Main name -->
  <text x="96" y="280" font-family="Courier New, Courier, monospace" font-size="80" fill="#e6edf3" font-weight="700" letter-spacing="-1">Jiachuan Zhu</text>

  <!-- Divider line -->
  <rect x="96" y="308" width="520" height="1" fill="#30363d"/>

  <!-- Subtitle -->
  <text x="96" y="368" font-family="Courier New, Courier, monospace" font-size="26" fill="#8b949e" letter-spacing="1">Software Engineer</text>
  <text x="96" y="410" font-family="Courier New, Courier, monospace" font-size="22" fill="#57c754" opacity="0.7" letter-spacing="1">Backend · Systems · AI-assisted Dev</text>

  <!-- Domain bottom right -->
  <text x="1128" y="560" font-family="Courier New, Courier, monospace" font-size="22" fill="#57c754" opacity="0.5" text-anchor="end">jczhu.com</text>

  <!-- Subtle grid dots top right -->
  <g fill="#8b949e" opacity="0.08">
    <circle cx="800" cy="80" r="1.5"/><circle cx="828" cy="80" r="1.5"/><circle cx="856" cy="80" r="1.5"/><circle cx="884" cy="80" r="1.5"/><circle cx="912" cy="80" r="1.5"/><circle cx="940" cy="80" r="1.5"/><circle cx="968" cy="80" r="1.5"/><circle cx="996" cy="80" r="1.5"/><circle cx="1024" cy="80" r="1.5"/><circle cx="1052" cy="80" r="1.5"/><circle cx="1080" cy="80" r="1.5"/><circle cx="1108" cy="80" r="1.5"/><circle cx="1136" cy="80" r="1.5"/><circle cx="1164" cy="80" r="1.5"/><circle cx="1192" cy="80" r="1.5"/><circle cx="1220" cy="80" r="1.5"/><circle cx="800" cy="108" r="1.5"/><circle cx="828" cy="108" r="1.5"/><circle cx="856" cy="108" r="1.5"/><circle cx="884" cy="108" r="1.5"/><circle cx="912" cy="108" r="1.5"/><circle cx="940" cy="108" r="1.5"/><circle cx="968" cy="108" r="1.5"/><circle cx="996" cy="108" r="1.5"/><circle cx="1024" cy="108" r="1.5"/><circle cx="1052" cy="108" r="1.5"/><circle cx="1080" cy="108" r="1.5"/><circle cx="1108" cy="108" r="1.5"/><circle cx="1136" cy="108" r="1.5"/><circle cx="1164" cy="108" r="1.5"/><circle cx="1192" cy="108" r="1.5"/><circle cx="1220" cy="108" r="1.5"/><circle cx="800" cy="136" r="1.5"/><circle cx="828" cy="136" r="1.5"/><circle cx="856" cy="136" r="1.5"/><circle cx="884" cy="136" r="1.5"/><circle cx="912" cy="136" r="1.5"/><circle cx="940" cy="136" r="1.5"/><circle cx="968" cy="136" r="1.5"/><circle cx="996" cy="136" r="1.5"/><circle cx="1024" cy="136" r="1.5"/><circle cx="1052" cy="136" r="1.5"/><circle cx="1080" cy="136" r="1.5"/><circle cx="1108" cy="136" r="1.5"/><circle cx="1136" cy="136" r="1.5"/><circle cx="1164" cy="136" r="1.5"/><circle cx="1192" cy="136" r="1.5"/><circle cx="1220" cy="136" r="1.5"/><circle cx="800" cy="164" r="1.5"/><circle cx="828" cy="164" r="1.5"/><circle cx="856" cy="164" r="1.5"/><circle cx="884" cy="164" r="1.5"/><circle cx="912" cy="164" r="1.5"/><circle cx="940" cy="164" r="1.5"/><circle cx="968" cy="164" r="1.5"/><circle cx="996" cy="164" r="1.5"/><circle cx="1024" cy="164" r="1.5"/><circle cx="1052" cy="164" r="1.5"/><circle cx="1080" cy="164" r="1.5"/><circle cx="1108" cy="164" r="1.5"/><circle cx="1136" cy="164" r="1.5"/><circle cx="1164" cy="164" r="1.5"/><circle cx="1192" cy="164" r="1.5"/><circle cx="1220" cy="164" r="1.5"/><circle cx="800" cy="192" r="1.5"/><circle cx="828" cy="192" r="1.5"/><circle cx="856" cy="192" r="1.5"/><circle cx="884" cy="192" r="1.5"/><circle cx="912" cy="192" r="1.5"/><circle cx="940" cy="192" r="1.5"/><circle cx="968" cy="192" r="1.5"/><circle cx="996" cy="192" r="1.5"/><circle cx="1024" cy="192" r="1.5"/><circle cx="1052" cy="192" r="1.5"/><circle cx="1080" cy="192" r="1.5"/><circle cx="1108" cy="192" r="1.5"/><circle cx="1136" cy="192" r="1.5"/><circle cx="1164" cy="192" r="1.5"/><circle cx="1192" cy="192" r="1.5"/><circle cx="1220" cy="192" r="1.5"/><circle cx="800" cy="220" r="1.5"/><circle cx="828" cy="220" r="1.5"/><circle cx="856" cy="220" r="1.5"/><circle cx="884" cy="220" r="1.5"/><circle cx="912" cy="220" r="1.5"/><circle cx="940" cy="220" r="1.5"/><circle cx="968" cy="220" r="1.5"/><circle cx="996" cy="220" r="1.5"/><circle cx="1024" cy="220" r="1.5"/><circle cx="1052" cy="220" r="1.5"/><circle cx="1080" cy="220" r="1.5"/><circle cx="1108" cy="220" r="1.5"/><circle cx="1136" cy="220" r="1.5"/><circle cx="1164" cy="220" r="1.5"/><circle cx="1192" cy="220" r="1.5"/><circle cx="1220" cy="220" r="1.5"/><circle cx="800" cy="248" r="1.5"/><circle cx="828" cy="248" r="1.5"/><circle cx="856" cy="248" r="1.5"/><circle cx="884" cy="248" r="1.5"/><circle cx="912" cy="248" r="1.5"/><circle cx="940" cy="248" r="1.5"/><circle cx="968" cy="248" r="1.5"/><circle cx="996" cy="248" r="1.5"/><circle cx="1024" cy="248" r="1.5"/><circle cx="1052" cy="248" r="1.5"/><circle cx="1080" cy="248" r="1.5"/><circle cx="1108" cy="248" r="1.5"/><circle cx="1136" cy="248" r="1.5"/><circle cx="1164" cy="248" r="1.5"/><circle cx="1192" cy="248" r="1.5"/><circle cx="1220" cy="248" r="1.5"/><circle cx="800" cy="276" r="1.5"/><circle cx="828" cy="276" r="1.5"/><circle cx="856" cy="276" r="1.5"/><circle cx="884" cy="276" r="1.5"/><circle cx="912" cy="276" r="1.5"/><circle cx="940" cy="276" r="1.5"/><circle cx="968" cy="276" r="1.5"/><circle cx="996" cy="276" r="1.5"/><circle cx="1024" cy="276" r="1.5"/><circle cx="1052" cy="276" r="1.5"/><circle cx="1080" cy="276" r="1.5"/><circle cx="1108" cy="276" r="1.5"/><circle cx="1136" cy="276" r="1.5"/><circle cx="1164" cy="276" r="1.5"/><circle cx="1192" cy="276" r="1.5"/><circle cx="1220" cy="276" r="1.5"/><circle cx="800" cy="304" r="1.5"/><circle cx="828" cy="304" r="1.5"/><circle cx="856" cy="304" r="1.5"/><circle cx="884" cy="304" r="1.5"/><circle cx="912" cy="304" r="1.5"/><circle cx="940" cy="304" r="1.5"/><circle cx="968" cy="304" r="1.5"/><circle cx="996" cy="304" r="1.5"/><circle cx="1024" cy="304" r="1.5"/><circle cx="1052" cy="304" r="1.5"/><circle cx="1080" cy="304" r="1.5"/><circle cx="1108" cy="304" r="1.5"/><circle cx="1136" cy="304" r="1.5"/><circle cx="1164" cy="304" r="1.5"/><circle cx="1192" cy="304" r="1.5"/><circle cx="1220" cy="304" r="1.5"/><circle cx="800" cy="332" r="1.5"/><circle cx="828" cy="332" r="1.5"/><circle cx="856" cy="332" r="1.5"/><circle cx="884" cy="332" r="1.5"/><circle cx="912" cy="332" r="1.5"/><circle cx="940" cy="332" r="1.5"/><circle cx="968" cy="332" r="1.5"/><circle cx="996" cy="332" r="1.5"/><circle cx="1024" cy="332" r="1.5"/><circle cx="1052" cy="332" r="1.5"/><circle cx="1080" cy="332" r="1.5"/><circle cx="1108" cy="332" r="1.5"/><circle cx="1136" cy="332" r="1.5"/><circle cx="1164" cy="332" r="1.5"/><circle cx="1192" cy="332" r="1.5"/><circle cx="1220" cy="332" r="1.5"/>
  </g>
</svg>